PathFileType	4	(X/Y/Z)	D:\Share\Shared_Data\Ergonomics\Sit To Stand Pertubation\S2\Perturbed.trc
DataRate	CameraRate	NumFrames	NumMarkers	Units	OrigDataRate	OrigDataStartFrame	OrigNumFrames	
100	100	18	18	m	100	13531	241
Frame#	Time	R_Toe			R_ASIS			R_Pelvis			V_Sacral			L_Pelvis			L_ASIS			Clavical			R_Acromium			L_Acromium			Sternum			Torso			R_Thigh_Med			R_Thigh_Lat			R_Thigh			R_Shank_Med			R_Shank_Lat			R_Shank			R_Heel			
		X1	Y1	Z1	X2	Y2	Z2	X3	Y3	Z3	X4	Y4	Z4	X5	Y5	Z5	X6	Y6	Z6	X7	Y7	Z7	X8	Y8	Z8	X9	Y9	Z9	X10	Y10	Z10	X11	Y11	Z11	X12	Y12	Z12	X13	Y13	Z13	X14	Y14	Z14	X15	Y15	Z15	X16	Y16	Z16	X17	Y17	Z17	X18	Y18	Z18	

13531	135.3	0.42930457	0.065058647	0.14500284	0.33456317	1.0103921	0.14994135	0.26140219	1.0245781	0.19507524	0.11703517	1.0403739	0.039092636	0.2120415	1.0374313	-0.14482516	0.30916348	1.0290964	-0.12155667	0.44252969	1.4187854	0.014809054	0.36908832	1.464866	0.22576448	0.33460468	1.4780193	-0.16296173	0.45041626	1.2552682	0.0091833353	0.436853	1.3823174	-0.099804115	0.37218396	0.49706262	0.11187058	0.35256436	0.51915253	0.20531082	0.39643738	0.69620349	0.18317747	0.29550433	0.11033774	0.10869755	0.27169708	0.098851204	0.19964619	0.31569144	0.36988406	0.22781261	0.19155302	0.061070793	0.14704047
13532	135.31	0.4293631	0.064984558	0.14499727	0.3384238	1.0122168	0.14959023	0.2650274	1.0255863	0.19460004	0.1205727	1.0408715	0.038693939	0.21539525	1.0382959	-0.14516133	0.31260663	1.030933	-0.12206985	0.44162289	1.4222941	0.014800603	0.36735141	1.4673341	0.22583401	0.33292493	1.4803574	-0.16297217	0.45145532	1.2588096	0.0089628305	0.43627246	1.3857963	-0.099868561	0.37150861	0.49711981	0.11112411	0.35193759	0.51942505	0.20444168	0.39769162	0.69588324	0.1826302	0.29561072	0.1103059	0.10850242	0.27168021	0.098986771	0.19935086	0.31499826	0.37028854	0.22713519	0.19163806	0.061215519	0.14697426
13533	135.32	0.42941901	0.064915283	0.14499957	0.34230365	1.013954	0.14923981	0.26859897	1.0264893	0.19413254	0.12405193	1.0412256	0.038308636	0.21867815	1.0390225	-0.14549551	0.31597333	1.0326392	-0.12258229	0.44065671	1.425614	0.014772933	0.36560233	1.4695934	0.22589568	0.3311745	1.4824995	-0.1629953	0.45236728	1.2621788	0.0087381763	0.43560074	1.389071	-0.099949913	0.37090192	0.49715567	0.11041128	0.35134738	0.5196701	0.20357906	0.39896213	0.69555182	0.18216988	0.29572781	0.11027879	0.10831065	0.27166852	0.099113808	0.1990732	0.31433182	0.37068176	0.22644461	0.19172734	0.061337967	0.14689404
13534	135.33	0.42947272	0.064851906	0.14500465	0.34621777	1.0156285	0.1488998	0.27211353	1.0273053	0.19367757	0.12747195	1.0414463	0.037935944	0.22189906	1.0396144	-0.14582123	0.31927353	1.0342229	-0.12308823	0.43963248	1.4287662	0.014726519	0.36384158	1.4716608	0.22595016	0.32935638	1.4844645	-0.16303174	0.45314319	1.2653955	0.0085097275	0.43484363	1.3921611	-0.10005017	0.37034967	0.49717215	0.10971158	0.35078183	0.51988757	0.20270683	0.40026657	0.6952077	0.18179073	0.29584958	0.11025543	0.10812319	0.27166324	0.099234535	0.19881349	0.31369086	0.37106351	0.22573366	0.19181758	0.061442822	0.14680495
13535	135.34	0.42952533	0.064794861	0.14500638	0.35016321	1.0172549	0.14857672	0.27556909	1.0280479	0.19323929	0.13083047	1.0415435	0.037574863	0.22506413	1.0400768	-0.14613116	0.32251437	1.0356927	-0.12358366	0.43855338	1.4317683	0.014661461	0.36206894	1.473553	0.22599788	0.32747263	1.4862675	-0.16308028	0.45378928	1.2684749	0.0082738867	0.43401044	1.3950861	-0.10017226	0.36984195	0.49717239	0.1089971	0.35023737	0.5200766	0.20180576	0.40161868	0.69485034	0.18147281	0.29597043	0.11023415	0.10793898	0.27166806	0.099352676	0.19856914	0.31308405	0.37143176	0.22499489	0.19190605	0.061535713	0.14671237
13536	135.35	0.42957834	0.064744049	0.14499904	0.35410635	1.0188362	0.14827228	0.27896484	1.028725	0.19281992	0.13412502	1.0415251	0.037224453	0.22817525	1.0404149	-0.1464231	0.32570004	1.0370551	-0.12406647	0.43742535	1.4346312	0.014578115	0.36028391	1.4752856	0.22603932	0.32552695	1.4879199	-0.16313838	0.45433047	1.2714259	0.0080245123	0.43311337	1.3978618	-0.1003187	0.36936639	0.49716074	0.1082411	0.34971603	0.52023676	0.20085834	0.40302548	0.69447845	0.18118581	0.29608661	0.11021304	0.10775556	0.27168713	0.099472191	0.19833595	0.3125242	0.3717836	0.22422383	0.19199078	0.061621517	0.14662057
13537	135.36	0.42963284	0.064698898	0.14497925	0.35799255	1.0203643	0.14798338	0.28230231	1.0293397	0.19241893	0.13735442	1.0413993	0.036883457	0.23123094	1.0406367	-0.14670026	0.32883121	1.0383142	-0.12453612	0.43625598	1.437359	0.014477132	0.358487	1.4768719	0.22607452	0.32352597	1.4894321	-0.16320308	0.4548028	1.2742537	0.0077554517	0.43216589	1.4005016	-0.10049037	0.36890561	0.49714215	0.10742722	0.34922064	0.52036774	0.19985432	0.40448996	0.69409106	0.1808938	0.29619666	0.11019032	0.10757021	0.27172348	0.099595528	0.19811082	0.31202066	0.37211667	0.22342107	0.19207033	0.061703304	0.14653239
13538	135.37	0.42968909	0.064658707	0.1449467	0.36177649	1.0218256	0.14770537	0.28558539	1.0298901	0.19203459	0.14052017	1.0411748	0.036551071	0.23422804	1.0407509	-0.14696716	0.3319053	1.0394735	-0.12499326	0.43505295	1.4399501	0.014359252	0.35668042	1.4783218	0.22610283	0.32147913	1.4908132	-0.1632708	0.45523615	1.2769589	0.0074628377	0.43118146	1.4030127	-0.100686	0.36844052	0.49712125	0.10655494	0.34875104	0.52047021	0.19879376	0.40601337	0.69368872	0.18055986	0.29629977	0.11016419	0.10738103	0.2717775	0.099722282	0.19789346	0.31157321	0.37242969	0.22259244	0.19214352	0.06178223	0.14644998
13539	135.38	0.42974603	0.064622917	0.1449039	0.36543994	1.0232054	0.14743381	0.28882034	1.0303732	0.19166588	0.14362617	1.0408624	0.036228222	0.23716376	1.0407694	-0.1472254	0.3349191	1.0405349	-0.12543977	0.43382211	1.442399	0.014225308	0.35486777	1.4796417	0.22612299	0.31939835	1.4920696	-0.1633376	0.45564215	1.2795393	0.0071465502	0.43017184	1.4053978	-0.10090215	0.36795554	0.49710162	0.10564002	0.34830194	0.52054596	0.19768651	0.40759204	0.69327325	0.18015254	0.29639438	0.11013308	0.10718815	0.27184607	0.099849197	0.19768681	0.31116986	0.3727225	0.22174904	0.19220937	0.061857887	0.14637526
13540	135.39	0.42980161	0.064591171	0.14485497	0.36898611	1.0244893	0.14716498	0.29201471	1.0307848	0.19131358	0.14667825	1.0404751	0.035917587	0.24003697	1.0407067	-0.14747224	0.33786975	1.0415009	-0.12587836	0.43256656	1.4446993	0.014077	0.3530538	1.4808351	0.22613403	0.31729742	1.4932036	-0.16339955	0.45601788	1.2819921	0.0068105168	0.42914581	1.4076541	-0.10113367	0.36743936	0.49708508	0.10471019	0.34786243	0.52059888	0.19654921	0.40921326	0.69284467	0.17965233	0.29647754	0.11009624	0.10699458	0.271923	0.099971428	0.1974958	0.31078879	0.37299585	0.2209059	0.19226683	0.061928749	0.1463101
13541	135.4	0.42985355	0.064563141	0.14480479	0.3724274	1.0256652	0.14689587	0.29517648	1.0311224	0.19098082	0.1496832	1.0400271	0.035622887	0.2428485	1.0405764	-0.14770406	0.34075589	1.0423717	-0.12631188	0.43128851	1.446847	0.013917761	0.35124417	1.481903	0.2261351	0.31519135	1.494215	-0.16345332	0.45635632	1.2843129	0.0064615822	0.42810867	1.4097753	-0.10137462	0.36688211	0.49707065	0.10379774	0.34741733	0.52063531	0.19540262	0.41085397	0.69239948	0.17905585	0.29654568	0.11005418	0.10680573	0.27200098	0.10008431	0.19732558	0.31040292	0.37325159	0.22007974	0.19231503	0.061992466	0.14625601
13542	135.41	0.42989966	0.064538467	0.14475859	0.37577545	1.0267246	0.14662468	0.29831305	1.0313865	0.19067305	0.15264784	1.0395328	0.035348557	0.24560106	1.0403914	-0.14791994	0.34357745	1.0431483	-0.12674181	0.42999222	1.4488406	0.013752103	0.34944446	1.4828446	0.22612473	0.31309445	1.4951008	-0.16349765	0.45665341	1.2864977	0.0061073647	0.42706354	1.411755	-0.10161942	0.36627454	0.49705472	0.10293208	0.3469501	0.52066412	0.19426871	0.41248569	0.69193121	0.17837598	0.29659668	0.11000856	0.10662792	0.2720726	0.10018462	0.19717947	0.30998535	0.37349203	0.21928629	0.19235327	0.062046394	0.14621359
13543	135.42	0.4299382	0.064516861	0.14472076	0.37903494	1.0276636	0.14635181	0.30143079	1.0315797	0.19039693	0.15557915	1.039004	0.035099239	0.24830014	1.0401604	-0.14812096	0.34633704	1.043829	-0.12716743	0.42868481	1.4506796	0.013583907	0.34765952	1.4836586	0.22609969	0.31101938	1.4958568	-0.16353355	0.45691037	1.2885441	0.005754004	0.42601331	1.4135869	-0.10186411	0.36561017	0.49703271	0.1021338	0.34644482	0.52069427	0.19316673	0.41407971	0.69143317	0.17763884	0.29663058	0.10996161	0.10646655	0.27213174	0.10027071	0.19705798	0.30951276	0.37371875	0.2185383	0.19238161	0.062088234	0.14618245
13544	135.43	0.42996826	0.064498398	0.14469327	0.38220697	1.0284829	0.14607988	0.30453448	1.0317069	0.19015851	0.15848413	1.0384491	0.034878914	0.25095436	1.0398917	-0.14830745	0.34903976	1.044412	-0.12758571	0.42737598	1.452364	0.013415639	0.34589395	1.4843433	0.22605598	0.30897687	1.4964769	-0.16356349	0.45713348	1.2904486	0.0054049587	0.42496286	1.4152662	-0.10210721	0.36488724	0.49699927	0.10141137	0.34588718	0.52073077	0.19211086	0.41561035	0.69090033	0.17687857	0.29665012	0.10991537	0.10632502	0.27217349	0.10034185	0.19695872	0.30896838	0.37393234	0.21784456	0.19240041	0.062116524	0.14616116
13545	135.44	0.42998959	0.064483269	0.14467517	0.38529816	1.0291869	0.14581357	0.30762662	1.0317734	0.18996194	0.16136998	1.037871	0.034690956	0.25357402	1.0395902	-0.14847867	0.35169177	1.0448959	-0.12799144	0.42607721	1.4538945	0.013248455	0.34415219	1.4848987	0.22599048	0.30697644	1.4969557	-0.16359079	0.45733325	1.2922098	0.0050615954	0.42391983	1.4167892	-0.10234917	0.36410645	0.49694806	0.10076113	0.34526617	0.52077393	0.19110925	0.41705585	0.69032874	0.17612999	0.29665997	0.10987131	0.10620417	0.27219513	0.10039769	0.19687726	0.30834375	0.37413275	0.21720865	0.19241055	0.062130856	0.14614754
13546	135.45	0.43000259	0.064471771	0.14466335	0.38832245	1.0297815	0.14555846	0.31070706	1.0317843	0.18980833	0.16424413	1.0372673	0.034538979	0.25616861	1.0392576	-0.14863332	0.35429929	1.04528	-0.12837773	0.42480084	1.455272	0.013082426	0.3424393	1.485326	0.22590262	0.30502716	1.4972874	-0.16361922	0.45752295	1.2938258	0.0047247744	0.4228942	1.4181532	-0.10259105	0.36326791	0.49687259	0.10016962	0.3445751	0.52081982	0.1901649	0.41839944	0.6897168	0.17542119	0.29666589	0.10983013	0.10610224	0.27219598	0.10043832	0.19680829	0.30763855	0.37431976	0.21662936	0.19241301	0.062131813	0.14613889
13547	135.46	0.4300083	0.064464073	0.1446543	0.3912962	1.0302734	0.14531973	0.31377371	1.031744	0.18969548	0.16711444	1.0366302	0.034426674	0.25874518	1.038891	-0.14877	0.35686734	1.0455634	-0.12873801	0.42355798	1.4564969	0.012916864	0.34076102	1.4856292	0.22579524	0.3031369	1.4974678	-0.16365318	0.45771591	1.2952949	0.0043959689	0.42189664	1.4193568	-0.1028334	0.36236761	0.49676794	0.099617226	0.34381323	0.52086304	0.18927705	0.41962875	0.68906635	0.17476746	0.296673	0.1097917	0.10601559	0.27217709	0.10046466	0.19674701	0.30685895	0.37449271	0.21610303	0.19240877	0.06212075	0.1461329
13548	135.47	0.43000797	0.064459869	0.14464557	0.39423331	1.0306688	0.14510066	0.31682275	1.0316558	0.18961876	0.16998758	1.0359464	0.034356422	0.26130685	1.0384847	-0.14888849	0.35939993	1.0457446	-0.12906827	0.42235773	1.4575695	0.012750478	0.3391225	1.4858121	0.22567336	0.30131323	1.4974937	-0.16369774	0.45792258	1.2966151	0.0040774064	0.42093689	1.4203987	-0.10307636	0.36139743	0.49663251	0.099082504	0.34298477	0.52089905	0.18844295	0.42073367	0.68838324	0.17416808	0.29668378	0.10975479	0.1059397	0.27214056	0.10047862	0.19668954	0.30601425	0.3746507	0.21562581	0.192399	0.062099548	0.14612781
